<?xml version="1.0" encoding="UTF-8"?>
<svg id="Ebene_1" xmlns="http://www.w3.org/2000/svg" version="1.1" viewBox="0 0 3493.81 1071.46">
  <!-- Generator: Adobe Illustrator 30.5.1, SVG Export Plug-In . SVG Version: 2.1.4 Build 3)  -->
  <defs>
    <style>
      .st0 {
        fill: #f05349;
      }

      .st1 {
        fill: #fefefe;
      }

      .st2 {
        fill: #e7ebf5;
      }
    </style>
  </defs>
  <g id="Generatives_Objekt">
    <g>
      <g>
        <g>
          <path class="st0" d="M2334.46,855.22l-81.66,1.78-42.92-48.75c-46.57,20.37-97.94,26.24-145.88,9.18-122.93-43.74-158.59-197-107.82-307.35,30.64-66.6,92.95-108.21,163.76-111.36,71.98-3.2,138.93,35.47,173.7,99.94,44.5,82.52,35.95,203.74-33.63,273.09l74.46,83.48Z"/>
          <path class="st1" d="M2113.65,700.69l50.79,55.97c-45.64,16-93.1,2.91-124.79-33.27-51.63-58.97-50.6-163.73,3.54-221.38,26.44-28.15,63.31-40.45,102.74-34.12,33.79,5.43,66.36,26.5,85.01,59.75,34.94,62.3,29.29,140.27-15.39,197.71l-33.76-39.23-57.67-.19c-4.8-.02-14.69,10.11-10.47,14.75Z"/>
        </g>
        <g>
          <path class="st2" d="M1864.05,816.09c-53.07,17.72-112.23,4.27-150.28-35.62l35.57-48.23c22.49,23.63,49.9,36.9,80.18,32.64,11.37-1.91,20.51-9.04,22.62-19.07,2.24-10.68-3.56-23.27-14.86-27.62l-54.46-20.97c-37.76-14.54-61.1-44.63-57.57-85.11,2.53-29.08,17.75-54.99,46.22-66.77,46.67-19.31,101.98-9.02,139.04,27.54l-33.54,47.79c-28.22-29.39-75.8-37.65-87.53-11.98-6.41,14.04,4.06,27.85,17.4,32.85l58.68,21.99c34.3,12.85,52.17,42.69,50.53,79.31-1.47,32.78-17.98,61.91-51.98,73.27Z"/>
          <g>
            <path class="st2" d="M1440.37,816.1l-83.02.99-79.87-141.29-62.55.31.04,140.71-70.13-.07v-408.7s153.14.22,153.14.22c19.53.03,37.67,4.16,55.19,11.22,29.85,12.67,51.25,36.05,62.07,66.78,20.93,68.08,3.99,150.24-66.41,176.95l91.54,152.88Z"/>
            <path class="st1" d="M1338.66,584.63c-12.29,15.45-29.66,23.05-48.57,23.19l-75.15.56v-131.25s80.53.28,80.53.28c21.29.07,38.63,11.84,48.24,30.47,12.05,24.24,10.8,53.25-5.05,76.76Z"/>
          </g>
          <g>
            <path class="st2" d="M1643.96,735.64l40.97,42.22c-25.37,31.48-62.39,46.25-103.15,46.01-51.69-.31-97.56-27.45-118.63-75.74-22.44-51.43-18.58-112.25,11.91-159.44,22.75-35.2,60.44-53.21,101.58-52.46,44.44-1.25,82.49,22.08,102.7,61.96,16.28,32.12,18.35,68.9,16.34,104.82l-180.32.03c2.41,18.11,10.77,33.29,23.87,45.65,32.41,23.15,76.66,19.48,104.72-13.05Z"/>
            <path class="st1" d="M1633.17,653.73l-118.11.43c3.09-27.84,20.5-50.77,46.23-58.17,21.17-6.09,41.79.74,55.47,17.07,8.63,11.22,14.6,22.25,16.41,40.66Z"/>
          </g>
        </g>
        <g>
          <g>
            <path class="st2" d="M2691.5,524c28.37,80.63,19.09,186.91-45.84,246.95-33.3,27.81-73.46,45.13-117.76,45.34l-142.47.69v-408.86s126.74-.14,126.74-.14c27.84-.03,53.93,3.51,79.62,13.4,47.39,18.19,82.69,54.27,99.71,102.62Z"/>
            <path class="st1" d="M2626.7,666.52c-13.26,45.62-50.11,75.99-96.98,79.77l-74.2.57-.07-269.61,67.27.48c49.37.35,89.4,32.99,103.63,79.92,10.82,35.67,11.17,71.7.37,108.87Z"/>
          </g>
          <path class="st2" d="M3424.89,820.99c-49.43,8.51-98.26-3.53-133.73-39.52l35.37-49.48c22.61,22.99,49.47,37.02,79.71,32.85,12.26-1.69,22.17-10.12,23.17-21.15.99-10.87-5.4-22.59-16.79-26.89l-62.46-23.62c-33.88-12.81-51.1-45.17-48.03-81.03,2.68-31.33,20.96-57.94,51.77-68.76,46.43-16.3,100.36-5.87,134.79,30.76l-33.42,47.38c-19.13-17.89-40.41-30.98-65.76-27.59-12.04,1.61-21.69,8.08-23.86,18.83-2.04,10.11,3.83,22.42,14.85,26.62l58.33,22.22c34.37,13.09,54.71,39.49,54.95,75.98.28,41.46-25.63,75.92-68.92,83.37Z"/>
          <g>
            <path class="st2" d="M3002.87,714.54c-10.91,57.16-55.7,98.58-108.92,107.21-57.97,9.4-114.22-16.9-141.04-69.98-21.17-41.88-21.35-91.56-3.18-134.02,22.45-52.47,70.84-83.45,126.08-81.72,53.89,1.69,101.69,35.01,120.47,87.73,10.32,28.95,12.7,58.77,6.59,90.78Z"/>
            <path class="st1" d="M2920.95,737.59c-26.34,31.51-77,28.59-101.26-2.67-24.21-31.2-23.39-75.21-1.7-106.62,12.76-18.47,32.6-27.84,52.97-27.87,20.71-.03,40.44,8.87,53.47,27.4,22.44,31.91,23.26,77.76-3.48,109.76Z"/>
          </g>
          <path class="st2" d="M3118.13,737.21c28.14,33.16,78.53,27.37,104.42-5.29l43.04,44.96c-31.59,38.37-77.99,53.39-127.76,44.09-40.92-7.65-79.87-39.51-95.23-83.19-29.96-85.22,12.25-185.13,100.45-199.64,47.43-7.8,91.68,7.19,121.97,43.68l-43.04,48.34c-13.89-19.19-34.56-30.17-56.61-29.62-22.25.56-43.12,12.38-54.81,33.84-17.21,31.6-17.37,73.45,7.57,102.84Z"/>
        </g>
      </g>
      <g>
        <path class="st0" d="M834.01,814.57l90.48.48c14.19.08,20.37,16.79,18.43,28.12-2.38,13.92-13.5,19.41-28.52,19.32l-81.94-.49-120.33-.99c-10.25-.08-15.53-11.29-24.28-17.9l-52.73,122c-4.88,11.3-14.49,15.69-26.5,13.84-8.97-1.38-15.73-9.34-17.91-20.62l-43.2-222.97-44.55,108.26c-3.95,9.59-11.17,18.48-23.58,18.46l-350.46-.55c-13.07-.02-18.65-13.29-19.15-23.11-.4-7.78,5.58-23.39,17.58-23.41l337.48-.53,70.06-175.19c3.91-9.77,11.74-13.22,20.91-12.82,6.96.3,18.17,3.11,20.13,12.99l46.5,233.89,39.14-86.35c5.03-11.09,20.93-15.54,30.77-8.84,14.2,9.67,23.66,23.59,35.16,36.28l106.49.14Z"/>
        <path class="st2" d="M634.73,237.04c-13.46-.58-21.61-9.02-24.43-20.96l.48-205.7,213.88,225.97-189.93.69Z"/>
        <g>
          <path class="st2" d="M834.01,814.57l-1.8,5.25-106.85-.94-21.62-23.83c-10.69-12.02-23.89-22.48-36.62-7.33l-39.32,86.46c-3.83,2.18-7.42,1.02-10.86-1.61l-46.47-233.39c-7.52-10.37-23.14-10.68-30.24.99l-69.33,173.3-5.07,5.48-338.11,1.28c-17.38,4.57-17.26,32.42,1.55,36.05l354.39.06,7.58-4.16c18.67-38.18,35.62-77.33,50.87-117.45,3.82-2.28,7.43-1.15,10.9,1.41l43.46,223.75c5.83,16.89,22.6,19.56,32.64,5.52l52.68-121.55c6.28-6.76,14.21-3.71,23.79,9.14l5.31,2.68,118.47,1.04,3.09,5.28-.13,156.78c-.15,24.51-22.22,52.57-49.54,52.57l-730.13.11c-27.34,0-52.43-25.62-52.43-53.52L0,54.42C0,28.71,20.83,1.11,47.32,1.06L558.99,0c7.04-.01,17.29,2.67,17.32,10.56l.68,201.71c.1,29.76,23.77,58.16,54.2,58.33l185.85,1.03c10.27.06,15.95,6.18,15.95,16.71l1.02,526.25Z"/>
          <path class="st1" d="M706.97,395.83l-572.51-.27c-16.22,0-25.03-14.93-25.48-27.98-.39-11.28,7.22-29.39,23.19-29.4l573.8-.03c14.44,0,22.19,17.6,22.45,26.91.4,13.98-5.87,24.73-21.45,30.76Z"/>
          <path class="st1" d="M704.35,555.37l-567.25.03c-15.5,0-26.09-12.8-27.8-25.58-1.93-14.44,6.39-27.87,22.56-32.36l574.34.49c14.94.01,22.38,17.55,22.42,27.41.06,14.27-7.51,26.15-24.28,30.01Z"/>
          <path class="st1" d="M457.94,235.53l-325.89-.66c-14.84-.03-22.77-16.27-23.08-27.47-.32-11.84,7.2-29.45,22.58-29.46l325.36-.2c14.64,0,23.25,16.41,23.56,27.2.41,14.09-6.53,25.57-22.54,30.59Z"/>
          <path class="st1" d="M403.07,715.14l-266.1.04c-16.01,0-27.01-13.06-28.13-27.12-.95-11.91,7.55-30.74,23.24-30.77l272.15-.52c16.55-.03,27.64,15.12,27.61,29.23-.03,14.4-10.79,29.14-28.76,29.14Z"/>
        </g>
      </g>
    </g>
  </g>
</svg>