<?xml version="1.0" encoding="UTF-8"?>
<svg id="Ebene_1" xmlns="http://www.w3.org/2000/svg" version="1.1" viewBox="0 0 2914.48 3310.59">
  <!-- Generator: Adobe Illustrator 30.5.1, SVG Export Plug-In . SVG Version: 2.1.4 Build 3)  -->
  <defs>
    <style>
      .st0 {
        fill: #f05349;
      }

      .st1 {
        fill: #fefefe;
      }

      .st2 {
        fill: #1b2c56;
      }
    </style>
  </defs>
  <path class="st0" d="M2576.9,2516.85l279.56,1.48c43.86.23,62.93,51.87,56.95,86.87-7.36,43.02-41.7,59.98-88.11,59.7l-253.17-1.5-371.78-3.07c-31.67-.26-47.97-34.89-75.01-55.32l-162.92,376.95c-15.09,34.92-44.76,48.48-81.87,42.76-27.73-4.28-48.59-28.86-55.34-63.71l-133.48-688.92-137.66,334.5c-12.19,29.62-34.5,57.1-72.85,57.04l-1082.84-1.71c-40.37-.06-57.61-41.06-59.16-71.4-1.22-24.03,17.23-72.28,54.33-72.34l1042.74-1.65,216.47-541.3c12.07-30.19,36.27-40.85,64.62-39.62,21.5.93,56.13,9.62,62.2,40.14l143.68,722.67,120.93-266.8c15.54-34.28,64.66-48.03,95.08-27.31,43.86,29.88,73.1,72.9,108.62,112.1l329.04.42Z"/>
  <path class="st2" d="M1961.19,732.39c-41.59-1.79-66.77-27.86-75.49-64.77l1.47-635.58,660.85,698.21-586.83,2.14Z"/>
  <g>
    <path class="st2" d="M2576.9,2516.85l-5.56,16.23-330.13-2.9-66.82-73.62c-33.03-37.14-73.82-69.46-113.14-22.65l-121.48,267.15c-11.84,6.73-22.94,3.16-33.56-4.96l-143.58-721.14c-23.24-32.03-71.49-32.99-93.43,3.05l-214.21,535.45-15.66,16.95-1044.67,3.95c-53.7,14.13-53.32,100.16,4.78,111.4l1094.99.19,23.43-12.87c57.67-117.96,110.07-238.93,157.19-362.91,11.8-7.06,22.95-3.55,33.69,4.37l134.28,691.33c18.02,52.2,69.84,60.44,100.85,17.07l162.78-375.57c19.42-20.88,43.91-11.47,73.49,28.24l16.41,8.27,366.03,3.23,9.56,16.32-.39,484.41c-.46,75.72-68.65,162.42-153.07,162.44l-2255.95.34c-84.47.01-161.99-79.16-162.01-165.37L0,168.16C-.02,88.69,64.35,3.44,146.21,3.27L1727.17,0c21.75-.05,53.42,8.24,53.51,32.61l2.11,623.23c.31,91.94,73.45,179.69,167.48,180.21l574.22,3.17c31.74.18,49.27,19.1,49.27,51.64l3.14,1625.98Z"/>
    <path class="st1" d="M2184.37,1223.04l-1768.95-.82c-50.13-.02-77.33-46.13-78.72-86.44-1.21-34.84,22.3-90.82,71.65-90.83l1772.93-.09c44.61,0,68.56,54.38,69.38,83.14,1.23,43.2-18.13,76.4-66.29,95.03Z"/>
    <path class="st1" d="M2176.28,1715.98l-1752.67.1c-47.88,0-80.62-39.56-85.89-79.03-5.96-44.61,19.75-86.11,69.72-99.98l1774.58,1.51c46.16.04,69.15,54.22,69.28,84.69.18,44.08-23.2,80.8-75.01,92.72Z"/>
    <path class="st1" d="M1414.95,727.75l-1006.93-2.03c-45.85-.09-70.36-50.26-71.3-84.86-.99-36.58,22.26-91,69.76-91.03l1005.29-.62c45.24-.03,71.83,50.69,72.8,84.04,1.27,43.53-20.19,79-69.64,94.51Z"/>
    <path class="st1" d="M1245.39,2209.63l-822.2.12c-49.47,0-83.44-40.34-86.9-83.8-2.93-36.81,23.34-94.97,71.8-95.06l840.87-1.6c51.13-.1,85.4,46.71,85.29,90.3-.11,44.48-33.34,90.04-88.87,90.05Z"/>
  </g>
</svg>